<?xml version="1.0" encoding="utf-8"?>
<!-- Generator: Adobe Illustrator 23.0.5, SVG Export Plug-In . SVG Version: 6.00 Build 0)  -->
<svg version="1.1" id="Capa_1" xmlns="http://www.w3.org/2000/svg" xmlns:xlink="http://www.w3.org/1999/xlink" x="0px" y="0px"
	 viewBox="0 0 443.7 443.7" style="enable-background:new 0 0 443.7 443.7;" xml:space="preserve">
<style type="text/css">
	.st0{fill:#FFFFFF;}
</style>
<g>
	<g>
		<path class="st0" d="M187.7,0H17.1C7.6,0,0,7.6,0,17.1v170.7c0,9.4,7.6,17.1,17.1,17.1h170.7c9.4,0,17.1-7.6,17.1-17.1V17.1
			C204.8,7.6,197.2,0,187.7,0z"/>
	</g>
</g>
<g>
	<g>
		<path class="st0" d="M426.7,0H256c-9.4,0-17.1,7.6-17.1,17.1v170.7c0,9.4,7.6,17.1,17.1,17.1h170.7c9.4,0,17.1-7.6,17.1-17.1V17.1
			C443.7,7.6,436.1,0,426.7,0z"/>
	</g>
</g>
<g>
	<g>
		<path class="st0" d="M187.7,238.9H17.1C7.6,238.9,0,246.6,0,256v170.7c0,9.4,7.6,17.1,17.1,17.1h170.7c9.4,0,17.1-7.6,17.1-17.1
			V256C204.8,246.6,197.2,238.9,187.7,238.9z"/>
	</g>
</g>
<g>
	<g>
		<path class="st0" d="M426.7,324.3h-68.3V256c0-9.4-7.6-17.1-17.1-17.1s-17.1,7.6-17.1,17.1v68.3H256c-9.4,0-17.1,7.6-17.1,17.1
			s7.6,17.1,17.1,17.1h68.3v68.3c0,9.4,7.6,17.1,17.1,17.1s17.1-7.6,17.1-17.1v-68.3h68.3c9.4,0,17.1-7.6,17.1-17.1
			S436.1,324.3,426.7,324.3z"/>
	</g>
</g>
</svg>
